<svg width="32" height="32" viewBox="0 0 32 32" fill="none" xmlns="http://www.w3.org/2000/svg">
<rect width="32" height="32" rx="16" fill="#1E1E2D"/>
<path fill-rule="evenodd" clip-rule="evenodd" d="M14.3481 18.1243V13.5146C15.9845 14.2846 17.2519 15.0285 18.7509 15.8305C17.5146 16.5161 15.9845 17.2855 14.3481 18.1243ZM23.468 11.222C23.1857 10.8501 22.7046 10.5606 22.1924 10.4647C20.6869 10.1788 11.2944 10.178 9.78972 10.4647C9.37897 10.5417 9.01321 10.7279 8.69901 11.017C7.37512 12.2458 7.78997 18.8353 8.10908 19.9027C8.24326 20.3647 8.41674 20.698 8.6352 20.9167C8.91667 21.2058 9.30205 21.405 9.74471 21.4942C10.9843 21.7507 17.3706 21.894 22.1662 21.5328C22.6081 21.4558 22.9992 21.2502 23.3076 20.9488C24.5317 19.7249 24.4483 12.7653 23.468 11.222Z" fill="#E9E9E9"/>
</svg>
